0
SECTION
2
HEADER
9
$INSUNITS
70
4
9
$ACADVER
1
AC1014
9
$HANDSEED
5
FFFF
0
ENDSEC
0
SECTION
2
TABLES
0
TABLE
2
VPORT
5
8
100
AcDbSymbolTable
0
ENDTAB
0
TABLE
2
LTYPE
5
5
100
AcDbSymbolTable
0
LTYPE
5
14
100
AcDbSymbolTableRecord
100
AcDbLinetypeTableRecord
2
BYBLOCK
70
0
0
LTYPE
5
15
100
AcDbSymbolTableRecord
100
AcDbLinetypeTableRecord
2
BYLAYER
70
0
0
ENDTAB
0
TABLE
2
LAYER
5
2
100
AcDbSymbolTable
70
2
0
LAYER
5
50
100
AcDbSymbolTableRecord
100
AcDbLayerTableRecord
2
0
70
0
6
CONTINUOUS
0
ENDTAB
0
TABLE
2
STYLE
5
3
100
AcDbSymbolTable
70
1
0
STYLE
5
11
100
AcDbSymbolTableRecord
100
AcDbTextStyleTableRecord
2
STANDARD
70
0
0
ENDTAB
0
TABLE
2
VIEW
5
6
100
AcDbSymbolTable
70
0
0
ENDTAB
0
TABLE
2
UCS
5
7
100
AcDbSymbolTable
70
0
0
ENDTAB
0
TABLE
2
APPID
5
9
100
AcDbSymbolTable
70
2
0
APPID
5
12
100
AcDbSymbolTableRecord
100
AcDbRegAppTableRecord
2
ACAD
70
0
0
ENDTAB
0
TABLE
2
DIMSTYLE
5
A
100
AcDbSymbolTable
70
1
0
ENDTAB
0
TABLE
2
BLOCK_RECORD
5
1
100
AcDbSymbolTable
70
1
0
BLOCK_RECORD
5
1F
100
AcDbSymbolTableRecord
100
AcDbBlockTableRecord
2
*MODEL_SPACE
0
BLOCK_RECORD
5
1B
100
AcDbSymbolTableRecord
100
AcDbBlockTableRecord
2
*PAPER_SPACE
0
ENDTAB
0
ENDSEC
0
SECTION
2
BLOCKS
0
BLOCK
5
20
100
AcDbEntity
100
AcDbBlockBegin
2
*MODEL_SPACE
0
ENDBLK
5
21
100
AcDbEntity
100
AcDbBlockEnd
0
BLOCK
5
1C
100
AcDbEntity
100
AcDbBlockBegin
2
*PAPER_SPACE
0
ENDBLK
5
1D
100
AcDbEntity
100
AcDbBlockEnd
0
ENDSEC
0
SECTION
2
ENTITIES
0
CIRCLE
5
100
100
AcDbEntity
8
0
100
AcDbCircle
10
25.947805884885405
20
67.472999569547184
30
0
40
1.0800000000000054
0
CIRCLE
5
101
100
AcDbEntity
8
0
100
AcDbCircle
10
-25.212194115114773
20
67.472999569547312
30
0
40
1.080000000000001
0
LWPOLYLINE
5
102
100
AcDbEntity
8
0
100
AcDbPolyline
90
4
70
1
43
0.0
10
-45.500000000000007
20
63.115499569547111
10
-45.500000000000007
20
68.830499569547115
10
-46.5
20
68.830499569547115
10
-46.5
20
63.115499569547111
0
LWPOLYLINE
5
103
100
AcDbEntity
8
0
100
AcDbPolyline
90
4
70
1
43
0.0
10
45.500000000000007
20
63.115499569547111
10
46.5
20
63.115499569547111
10
46.5
20
68.830499569547115
10
45.500000000000007
20
68.830499569547115
0
LWPOLYLINE
5
104
100
AcDbEntity
8
0
100
AcDbPolyline
90
42
70
1
43
0.0
10
18.754331188375026
20
-28.114172029062313
42
-0.30667844155888507
10
15.968901115719243
20
-30.000000000000004
10
-15.968901115719341
20
-30
42
-0.30667844155888702
10
-18.754331188375122
20
-28.114172029062313
10
-23.245668811624974
20
-16.885827970937687
42
0.30667844155888518
10
-26.031098884280755
20
-14.999999999999998
10
-43.000000000000043
20
-15
10
-43.000000000000043
20
1.0000000000000004
10
-26.031098884280752
20
0.99999999999999256
42
0.30667844155888513
10
-23.24566881162497
20
2.8858279709376822
10
-18.214569927344272
20
15.463575181639431
42
0.095414572399759423
10
-18.000000000000046
20
16.577747210701741
10
-18.000000000000043
20
43.488419672539123
42
0.13389007234320871
10
-18.692028305717908
20
46.026407040763004
10
-26.341730323036252
20
59.010986937771136
42
0.26559389589240956
10
-30.649702017318386
20
61.47299956954727
10
-49.499999999999972
20
61.472999569547291
10
-49.5
20
70.472999569547198
10
-22.632194115114764
20
70.47299956954727
10
-22.632194115114661
20
63.928097520036019
42
0.13389007234320463
10
-21.940165809396795
20
61.390110151812223
10
-14.682100837627619
20
49.070293731479225
42
0.26559389589240873
10
-10.37412914334549
20
46.608281099703106
10
11.109740913116218
20
46.608281099703106
42
0.26559389589240823
10
15.417712607398343
20
49.070293731479218
10
22.675777579167544
20
61.390110151812195
42
0.13389007234320888
10
23.367805884885414
20
63.928097520036076
10
23.367805884885414
20
70.472999569547184
10
49.5
20
70.472999569547085
10
49.499999999999957
20
61.47299956954712
10
31.385313787089007
20
61.47299956954717
42
0.26559389589240889
10
27.07734209280687
20
59.010986937771051
10
18.69202830571783
20
44.777781960185607
42
0.13389007234320943
10
17.999999999999954
20
42.239794591961719
10
17.99999999999995
20
16.577747210701798
42
0.095414572399759798
10
18.214569927344172
20
15.463575181639486
10
23.245668811624878
20
2.8858279709377221
42
0.30667844155888524
10
26.031098884280656
20
1.0000000000000315
10
42.999999999999957
20
1.0000000000000231
10
42.999999999999957
20
-14.999999999999979
10
26.031098884280667
20
-14.99999999999998
42
0.30667844155888502
10
23.245668811624888
20
-16.885827970937669
0
LWPOLYLINE
5
105
100
AcDbEntity
8
0
100
AcDbPolyline
90
42
70
1
43
0.0
10
-18.000000000000046
20
16.577747210701741
42
-0.095414572399757855
10
-18.214569927344272
20
15.463575181639428
10
-23.24566881162497
20
2.885827970937684
42
-0.30667844155888607
10
-26.031098884280752
20
0.99999999999999201
10
-43.000000000000043
20
1.0000000000000009
10
-43.000000000000043
20
-15
10
-26.031098884280752
20
-14.999999999999991
42
-0.30667844155888513
10
-23.24566881162497
20
-16.885827970937687
10
-18.754331188375122
20
-28.114172029062313
42
0.30667844155888518
10
-15.968901115719339
20
-30
10
15.968901115719245
20
-30.000000000000004
42
0.30667844155888518
10
18.754331188375026
20
-28.114172029062313
10
23.245668811624888
20
-16.885827970937669
42
-0.30667844155888535
10
26.031098884280667
20
-14.99999999999998
10
42.999999999999957
20
-14.999999999999979
10
42.999999999999957
20
1.0000000000000235
10
26.031098884280656
20
1.000000000000028
42
-0.30667844155888468
10
23.245668811624878
20
2.8858279709377221
10
18.214569927344172
20
15.463575181639488
42
-0.095414572399760991
10
17.99999999999995
20
16.577747210701798
10
17.99999999999995
20
42.239794591961719
42
-0.13389007234320899
10
18.69202830571783
20
44.777781960185607
10
27.077342092806866
20
59.010986937771065
42
-0.26559389589240689
10
31.385313787089007
20
61.472999569547177
10
49.499999999999957
20
61.47299956954712
10
49.5
20
70.472999569547085
10
23.367805884885414
20
70.472999569547184
10
23.367805884885421
20
63.928097520036076
42
-0.13389007234321137
10
22.675777579167541
20
61.390110151812188
10
15.417712607398347
20
49.070293731479218
42
-0.26559389589240812
10
11.109740913116218
20
46.608281099703106
10
-10.37412914334549
20
46.608281099703106
42
-0.26559389589240823
10
-14.682100837627621
20
49.070293731479225
10
-21.940165809396802
20
61.390110151812237
42
-0.13389007234320457
10
-22.632194115114665
20
63.928097520036019
10
-22.632194115114764
20
70.47299956954727
10
-49.499999999999993
20
70.472999569547198
10
-49.499999999999972
20
61.472999569547291
10
-30.649702017318393
20
61.472999569547291
42
-0.26559389589240967
10
-26.341730323036249
20
59.01098693777115
10
-18.692028305717919
20
46.026407040763004
42
-0.13389007234320663
10
-18.000000000000046
20
43.488419672539123
0
CIRCLE
5
106
100
AcDbEntity
8
0
100
AcDbCircle
10
-25.212194115114773
20
67.472999569547312
30
0
40
1.080000000000001
0
CIRCLE
5
107
100
AcDbEntity
8
0
100
AcDbCircle
10
25.947805884885405
20
67.472999569547184
30
0
40
1.0800000000000054
0
LWPOLYLINE
5
108
100
AcDbEntity
8
0
100
AcDbPolyline
90
4
70
1
43
0.0
10
-46.5
20
63.115499569547126
10
-45.500000000000007
20
63.115499569547126
10
-45.500000000000007
20
68.830499569547115
10
-46.5
20
68.830499569547129
0
LWPOLYLINE
5
109
100
AcDbEntity
8
0
100
AcDbPolyline
90
4
70
1
43
0.0
10
45.500000000000007
20
68.830499569547115
10
45.500000000000007
20
63.115499569547111
10
46.5
20
63.115499569547126
10
46.5
20
68.830499569547115
0
ENDSEC
0
SECTION
2
OBJECTS
0
DICTIONARY
5
C
100
AcDbDictionary
3
ACAD_GROUP
350
D
3
ACAD_MLINESTYLE
350
17
0
DICTIONARY
5
D
100
AcDbDictionary
0
DICTIONARY
5
1A
330
C
100
AcDbDictionary
0
DICTIONARY
5
17
100
AcDbDictionary
0
ENDSEC
0
EOF
